<svg xmlns="http://www.w3.org/2000/svg" viewBox="0 0 772.43 333.39"><defs><style>.cls-1{fill:none;}.cls-2{fill:#ffbc05;}.cls-3{fill:#ffe0bb;}</style></defs><g id="Layer_2" data-name="Layer 2"><g id="Layer_1-2" data-name="Layer 1"><rect class="cls-1" width="772.43" height="333.39"/><circle class="cls-2" cx="142.79" cy="166.78" r="115.48"/><path d="M187.16,187.91a7.49,7.49,0,0,1-5.5-12.57l14.39-15.59-14.39-15.59a7.49,7.49,0,0,1,5.5-12.57,7.53,7.53,0,0,1,5.52,2.42l19,20.67a7.46,7.46,0,0,1,0,10.14l-19,20.67A7.51,7.51,0,0,1,187.16,187.91Z"/><path d="M98.42,187.91a7.53,7.53,0,0,1-5.52-2.42l-19-20.67a7.46,7.46,0,0,1,0-10.14L92.9,134a7.53,7.53,0,0,1,5.52-2.42,7.49,7.49,0,0,1,5.5,12.57L89.53,159.75l14.39,15.59a7.49,7.49,0,0,1-5.5,12.57Z"/><path d="M128,242.78l-5.73,7.91c-.88,1.21-2.25.88-2.46-.61l-1.36-9.67Z"/><polygon class="cls-3" points="114.5 212.49 118.47 240.41 128.02 242.78 144.56 219.96 114.5 212.49"/><path d="M130.09,85.09h31a0,0,0,0,1,0,0V207a11.19,11.19,0,0,1-11.19,11.19h-8.6A11.19,11.19,0,0,1,130.09,207V85.09a0,0,0,0,1,0,0Z" transform="translate(250.3 333.91) rotate(-166.05)"/><path d="M295.09,132.56a13.29,13.29,0,0,1-5.48-4.35,11.16,11.16,0,0,1-2-6.44h6.2a8.19,8.19,0,0,0,2.6,5.28q2.26,2.14,6.62,2.15a9.72,9.72,0,0,0,6.56-2.08,6.76,6.76,0,0,0,2.4-5.35,6.08,6.08,0,0,0-1.41-4.16,9.11,9.11,0,0,0-3.52-2.43,56.16,56.16,0,0,0-5.69-1.79,51.42,51.42,0,0,1-7.08-2.3,11.44,11.44,0,0,1-4.54-3.62,10.6,10.6,0,0,1-1.89-6.62,11.47,11.47,0,0,1,1.86-6.47A12,12,0,0,1,294.89,90a18.44,18.44,0,0,1,7.72-1.54,16.16,16.16,0,0,1,10.27,3.14,11.59,11.59,0,0,1,4.51,8.32H311a6.87,6.87,0,0,0-2.69-4.51,9.56,9.56,0,0,0-6.27-2,9.12,9.12,0,0,0-5.95,1.88,6.44,6.44,0,0,0-2.31,5.28,5.7,5.7,0,0,0,1.38,4,8.93,8.93,0,0,0,3.39,2.34c1.35.53,3.23,1.14,5.67,1.82a53,53,0,0,1,7.1,2.4,11.91,11.91,0,0,1,4.61,3.65,10.6,10.6,0,0,1,1.92,6.69,11.77,11.77,0,0,1-1.73,6.14,12.66,12.66,0,0,1-5.12,4.67,16.84,16.84,0,0,1-8,1.8A19.14,19.14,0,0,1,295.09,132.56Z"/><path d="M326.41,106.57a15.63,15.63,0,0,1,6-6.3,19.19,19.19,0,0,1,19.52.9,14.8,14.8,0,0,1,5.54,8.7h-6.27a9,9,0,0,0-3.49-5.06,10.81,10.81,0,0,0-6.43-1.85,10.34,10.34,0,0,0-8.07,3.42q-3.08,3.42-3.07,9.7t3.07,9.79a10.3,10.3,0,0,0,8.07,3.46,10.86,10.86,0,0,0,6.4-1.8,9.1,9.1,0,0,0,3.52-5.12h6.27a15.43,15.43,0,0,1-5.63,8.61,16.85,16.85,0,0,1-10.56,3.23,17.32,17.32,0,0,1-8.87-2.24,15.58,15.58,0,0,1-6-6.33,20.18,20.18,0,0,1-2.17-9.6A19.86,19.86,0,0,1,326.41,106.57Z"/><path d="M389.84,99.66a12,12,0,0,1,5,5.09,17.18,17.18,0,0,1,1.83,8.26v20.67h-5.76V113.84q0-5.25-2.63-8a9.37,9.37,0,0,0-7.17-2.79,9.58,9.58,0,0,0-7.32,2.88c-1.82,1.92-2.72,4.72-2.72,8.39v19.39h-5.83V86.32h5.83V103.6a11.49,11.49,0,0,1,4.76-4.16A15.47,15.47,0,0,1,382.67,98,15.11,15.11,0,0,1,389.84,99.66Z"/><path d="M412.59,132a15.86,15.86,0,0,1-6.27-6.36,19.51,19.51,0,0,1-2.27-9.57,19,19,0,0,1,2.33-9.51,16.09,16.09,0,0,1,6.37-6.33,19.53,19.53,0,0,1,18.05,0,16.14,16.14,0,0,1,6.37,6.3,19,19,0,0,1,2.33,9.54,18.73,18.73,0,0,1-2.4,9.57,16.59,16.59,0,0,1-6.49,6.36,18.58,18.58,0,0,1-9.09,2.24A17.89,17.89,0,0,1,412.59,132Zm14.82-4.35a11.2,11.2,0,0,0,4.44-4.41,14.19,14.19,0,0,0,1.7-7.17,14.45,14.45,0,0,0-1.66-7.17,10.87,10.87,0,0,0-4.36-4.38,12.56,12.56,0,0,0-11.68,0,10.51,10.51,0,0,0-4.25,4.38,14.78,14.78,0,0,0-1.6,7.17,15.16,15.16,0,0,0,1.57,7.23,10.39,10.39,0,0,0,4.19,4.38,11.78,11.78,0,0,0,5.76,1.44A12.34,12.34,0,0,0,427.41,127.66Z"/><path d="M453.55,132a15.86,15.86,0,0,1-6.27-6.36,19.51,19.51,0,0,1-2.27-9.57,19,19,0,0,1,2.33-9.51,16.09,16.09,0,0,1,6.37-6.33,19.53,19.53,0,0,1,18.05,0,16.14,16.14,0,0,1,6.37,6.3,19,19,0,0,1,2.33,9.54,18.73,18.73,0,0,1-2.4,9.57,16.55,16.55,0,0,1-6.5,6.36,18.52,18.52,0,0,1-9.08,2.24A17.89,17.89,0,0,1,453.55,132Zm14.82-4.35a11.2,11.2,0,0,0,4.44-4.41,14.19,14.19,0,0,0,1.7-7.17,14.45,14.45,0,0,0-1.66-7.17,10.87,10.87,0,0,0-4.36-4.38,12.56,12.56,0,0,0-11.68,0,10.51,10.51,0,0,0-4.25,4.38,14.78,14.78,0,0,0-1.6,7.17,15.16,15.16,0,0,0,1.57,7.23,10.39,10.39,0,0,0,4.19,4.38,11.78,11.78,0,0,0,5.76,1.44A12.34,12.34,0,0,0,468.37,127.66Z"/><path d="M494,86.32v47.36h-5.83V86.32Z"/><path d="M529.87,131.21a21.34,21.34,0,0,1-8.1-8.12,24.71,24.71,0,0,1,0-23.49,21.3,21.3,0,0,1,8.1-8.13,23.63,23.63,0,0,1,22.72,0,21.12,21.12,0,0,1,8.06,8.1,25,25,0,0,1,0,23.55,21.16,21.16,0,0,1-8.06,8.09,23.56,23.56,0,0,1-22.72,0Zm19.74-4.32a15.32,15.32,0,0,0,5.89-6.2,21.54,21.54,0,0,0,0-18.72,15.4,15.4,0,0,0-5.86-6.18,17.45,17.45,0,0,0-16.89,0,15.4,15.4,0,0,0-5.86,6.18,21.54,21.54,0,0,0,0,18.72,15.32,15.32,0,0,0,5.89,6.2,17.33,17.33,0,0,0,16.83,0Z"/><path d="M585.55,103.41h-7.36v30.27h-5.83V103.41h-4.54v-4.8h4.54v-2.5c0-3.93,1-6.79,3-8.61s5.28-2.72,9.76-2.72v4.87q-3.84,0-5.4,1.5c-1,1-1.57,2.66-1.57,5v2.5h7.36Z"/><path d="M352.73,163.41v16.44H330.41v67.8H309.89v-67.8H287.57V163.41Z"/><path d="M425.81,219.09H379.37q.48,6.24,4,9.54a12.28,12.28,0,0,0,8.7,3.3q7.68,0,10.68-6.48h21.84a30,30,0,0,1-6.06,11.88,30.34,30.34,0,0,1-11,8.28,35.27,35.27,0,0,1-14.76,3,35.92,35.92,0,0,1-17.52-4.2,29.87,29.87,0,0,1-12-12A37,37,0,0,1,359,214.17a37.47,37.47,0,0,1,4.26-18.24,29.49,29.49,0,0,1,11.94-12,36.17,36.17,0,0,1,17.64-4.2,35.81,35.81,0,0,1,17.28,4.08,29.3,29.3,0,0,1,11.82,11.64,35.33,35.33,0,0,1,4.26,17.64A52.38,52.38,0,0,1,425.81,219.09Zm-20.64-11.4a10.55,10.55,0,0,0-3.6-8.4,13.25,13.25,0,0,0-9-3.12,13,13,0,0,0-8.7,3,13.32,13.32,0,0,0-4.38,8.52Z"/><path d="M437.15,195.93a29.59,29.59,0,0,1,11.88-12,35.57,35.57,0,0,1,17.46-4.2q12.6,0,21.06,6.6t11.1,18.6H476.81q-2.76-7.68-10.68-7.68a10.76,10.76,0,0,0-9,4.38q-3.36,4.38-3.36,12.54t3.36,12.54a10.76,10.76,0,0,0,9,4.38q7.92,0,10.68-7.68h21.84q-2.64,11.76-11.16,18.48t-21,6.72a35.57,35.57,0,0,1-17.46-4.2,29.59,29.59,0,0,1-11.88-12,41.18,41.18,0,0,1,0-36.48Z"/><path d="M569.21,187.59q7,7.62,7,20.94v39.12h-20.4V211.29q0-6.72-3.48-10.44a13.64,13.64,0,0,0-18.72,0q-3.48,3.72-3.48,10.44v36.36H509.57v-88.8h20.52v30.84a21.93,21.93,0,0,1,8.52-7.08A27.23,27.23,0,0,1,550.73,180Q562.25,180,569.21,187.59Z"/><path d="M592,170.55a10.3,10.3,0,0,1-3.42-7.86,10.44,10.44,0,0,1,3.42-8,12.44,12.44,0,0,1,8.82-3.18,12.27,12.27,0,0,1,8.7,3.18,10.44,10.44,0,0,1,3.42,8,10.3,10.3,0,0,1-3.42,7.86,12.27,12.27,0,0,1-8.7,3.18A12.44,12.44,0,0,1,592,170.55Zm19,10.14v67H590.45v-67Z"/><path d="M688.61,219.09H642.17q.48,6.24,4,9.54a12.28,12.28,0,0,0,8.7,3.3q7.68,0,10.68-6.48h21.84a30,30,0,0,1-6.06,11.88,30.34,30.34,0,0,1-11,8.28,35.27,35.27,0,0,1-14.76,3,35.92,35.92,0,0,1-17.52-4.2,29.87,29.87,0,0,1-12-12,37,37,0,0,1-4.32-18.24A37.47,37.47,0,0,1,626,195.93a29.49,29.49,0,0,1,11.94-12,36.17,36.17,0,0,1,17.64-4.2,35.81,35.81,0,0,1,17.28,4.08,29.3,29.3,0,0,1,11.82,11.64A35.33,35.33,0,0,1,689,213.09,52.38,52.38,0,0,1,688.61,219.09ZM668,207.69a10.55,10.55,0,0,0-3.6-8.4,13.25,13.25,0,0,0-9-3.12,13,13,0,0,0-8.7,3,13.32,13.32,0,0,0-4.38,8.52Z"/><path d="M711.41,245.61a26.64,26.64,0,0,1-10.8-8.22,21.62,21.62,0,0,1-4.44-11.7h20.28a7.8,7.8,0,0,0,3.24,5.64,11.46,11.46,0,0,0,7.08,2.16,10.11,10.11,0,0,0,5.94-1.5,4.59,4.59,0,0,0,2.1-3.9,4.5,4.5,0,0,0-3-4.26,60.61,60.61,0,0,0-9.72-3.06,91.26,91.26,0,0,1-12-3.54,20.73,20.73,0,0,1-8.28-5.88q-3.48-4-3.48-10.86a18.44,18.44,0,0,1,3.18-10.5,21.41,21.41,0,0,1,9.36-7.5,35.84,35.84,0,0,1,14.7-2.76q12.6,0,19.86,6.24a24.28,24.28,0,0,1,8.34,16.56h-19a8.17,8.17,0,0,0-3.06-5.52,10.61,10.61,0,0,0-6.78-2,9.37,9.37,0,0,0-5.52,1.38,4.41,4.41,0,0,0-1.92,3.78q0,2.88,3.06,4.32a49,49,0,0,0,9.54,2.88,104.37,104.37,0,0,1,12.12,3.78,20.91,20.91,0,0,1,8.22,6q3.54,4.14,3.66,11.1a17.62,17.62,0,0,1-3.3,10.5,21.83,21.83,0,0,1-9.48,7.26A36.26,36.26,0,0,1,727,248.61,38.49,38.49,0,0,1,711.41,245.61Z"/></g></g></svg>